# xmcd
#
# Track frame offsets: 
#        150
#        31855
#        51460
#        71411
#        91777
#        107060
#        125816
#        143298
#        163218
#        176781
#        200273
#        228083
#        251662
#
# Disc length: 3627 seconds
#
# Revision: 1
# Processed by: cddbd v1.5.2PL0 Copyright (c) Steve Scherf et al.
# Submitted via: ExactAudioCopy v1.3
#
DISCID=ae0e290d
DTITLE=Various Artist - Blues Revue sampler, Nov-Dec 2010
DYEAR=2010
DGENRE=Blues
TTITLE0=Laurie Morvan Band - Living in a man's world
TTITLE1=Becki Sue and Her Big Rockin' Daddies! - Mr. Lies
TTITLE2=Oli Brown - Speechless
TTITLE3=Lisa Mann - Little sister (You ain't suffered)
TTITLE4=Willie McBlind - Bad thing
TTITLE5=Blind Willy - Living the blues
TTITLE6=Nick Moss - Georgia redsnake
TTITLE7=Cee Cee James - Black raven
TTITLE8=Cliff Belcher and Friends - Shot through the heart
TTITLE9=Joanne Shaw Taylor - Can't keep living like this
TTITLE10=Joe Louis Walker - Slow down GTO
TTITLE11=R.J. Mischo - Two hours from Tulsa
TTITLE12=Mark Evangelos - Confusion boogie
EXTD=
EXTT0=
EXTT1=
EXTT2=
EXTT3=
EXTT4=
EXTT5=
EXTT6=
EXTT7=
EXTT8=
EXTT9=
EXTT10=
EXTT11=
EXTT12=
PLAYORDER=
